<mxfile host="app.diagrams.net" agent="Mozilla/5.0 (Macintosh; Intel Mac OS X 10_15_7) AppleWebKit/537.36 (KHTML, like Gecko) Chrome/129.0.0.0 Safari/537.36" version="24.7.17">
  <diagram name="Page-1" id="CSKvj9ZxhTuxwcwGOilD">
    <mxGraphModel dx="819" dy="454" grid="1" gridSize="10" guides="1" tooltips="1" connect="1" arrows="1" fold="1" page="1" pageScale="1" pageWidth="850" pageHeight="1100" math="0" shadow="0">
      <root>
        <mxCell id="0" />
        <mxCell id="1" parent="0" />
        <mxCell id="lGPp_noDYYtTpUQ_1Vge-1" value="" style="rounded=0;whiteSpace=wrap;html=1;strokeWidth=3;" parent="1" vertex="1">
          <mxGeometry x="210" y="200" width="290" height="170" as="geometry" />
        </mxCell>
        <mxCell id="lGPp_noDYYtTpUQ_1Vge-2" value="" style="endArrow=blockThin;html=1;rounded=0;endFill=1;startArrow=none;startFill=0;" parent="1" edge="1">
          <mxGeometry width="50" height="50" relative="1" as="geometry">
            <mxPoint x="520" y="370" as="sourcePoint" />
            <mxPoint x="520" y="200" as="targetPoint" />
          </mxGeometry>
        </mxCell>
        <mxCell id="lGPp_noDYYtTpUQ_1Vge-3" value="" style="endArrow=blockThin;html=1;rounded=0;endFill=1;startArrow=none;startFill=0;" parent="1" edge="1">
          <mxGeometry width="50" height="50" relative="1" as="geometry">
            <mxPoint x="210" y="180" as="sourcePoint" />
            <mxPoint x="500" y="180" as="targetPoint" />
          </mxGeometry>
        </mxCell>
        <mxCell id="lGPp_noDYYtTpUQ_1Vge-4" value="Image&lt;div&gt;height&lt;div&gt;&lt;font face=&quot;Courier New&quot;&gt;index: 0&lt;/font&gt;&lt;/div&gt;&lt;/div&gt;" style="text;html=1;align=center;verticalAlign=middle;whiteSpace=wrap;rounded=0;" parent="1" vertex="1">
          <mxGeometry x="520" y="255" width="70" height="60" as="geometry" />
        </mxCell>
        <mxCell id="lGPp_noDYYtTpUQ_1Vge-5" value="Image width &lt;font face=&quot;Courier New&quot;&gt;index: 1&lt;/font&gt;" style="text;html=1;align=center;verticalAlign=middle;whiteSpace=wrap;rounded=0;" parent="1" vertex="1">
          <mxGeometry x="307.5" y="140" width="95" height="30" as="geometry" />
        </mxCell>
        <mxCell id="lGPp_noDYYtTpUQ_1Vge-6" value="u&lt;div&gt;&lt;font face=&quot;Courier New&quot;&gt;index: 0&lt;/font&gt;&lt;/div&gt;" style="text;html=1;align=center;verticalAlign=middle;whiteSpace=wrap;rounded=0;" parent="1" vertex="1">
          <mxGeometry x="380" y="279" width="60" height="30" as="geometry" />
        </mxCell>
        <mxCell id="lGPp_noDYYtTpUQ_1Vge-7" value="v&lt;div&gt;&lt;font face=&quot;Courier New&quot;&gt;index: 1&lt;/font&gt;&lt;/div&gt;" style="text;html=1;align=center;verticalAlign=middle;whiteSpace=wrap;rounded=0;" parent="1" vertex="1">
          <mxGeometry x="300" y="219.94" width="70" height="30" as="geometry" />
        </mxCell>
        <mxCell id="lGPp_noDYYtTpUQ_1Vge-9" value="" style="endArrow=blockThin;html=1;rounded=0;endFill=1;" parent="1" edge="1">
          <mxGeometry width="50" height="50" relative="1" as="geometry">
            <mxPoint x="294.82" y="254.01" as="sourcePoint" />
            <mxPoint x="294.82" y="215.88" as="targetPoint" />
          </mxGeometry>
        </mxCell>
        <mxCell id="lGPp_noDYYtTpUQ_1Vge-10" value="" style="endArrow=blockThin;html=1;rounded=0;endFill=1;" parent="1" edge="1">
          <mxGeometry width="50" height="50" relative="1" as="geometry">
            <mxPoint x="385" y="314.82" as="sourcePoint" />
            <mxPoint x="435" y="314.82" as="targetPoint" />
          </mxGeometry>
        </mxCell>
        <mxCell id="lGPp_noDYYtTpUQ_1Vge-11" value="x-coordinate&lt;div&gt;&lt;font face=&quot;Courier New&quot;&gt;index: 0&lt;/font&gt;&lt;/div&gt;" style="text;html=1;align=center;verticalAlign=middle;whiteSpace=wrap;rounded=0;" parent="1" vertex="1">
          <mxGeometry x="260" y="380" width="70" height="30" as="geometry" />
        </mxCell>
        <mxCell id="lGPp_noDYYtTpUQ_1Vge-12" value="y-coordinate&lt;div&gt;&lt;font face=&quot;Courier New&quot;&gt;index: 1&lt;/font&gt;&lt;/div&gt;" style="text;html=1;align=center;verticalAlign=middle;whiteSpace=wrap;rounded=0;" parent="1" vertex="1">
          <mxGeometry x="130" y="300" width="70" height="30" as="geometry" />
        </mxCell>
        <mxCell id="lGPp_noDYYtTpUQ_1Vge-13" value="" style="ellipse;whiteSpace=wrap;html=1;fillColor=#000000;" parent="1" vertex="1">
          <mxGeometry x="290" y="310" width="10" height="10" as="geometry" />
        </mxCell>
        <mxCell id="lGPp_noDYYtTpUQ_1Vge-16" value="" style="endArrow=none;html=1;rounded=0;dashed=1;" parent="1" edge="1">
          <mxGeometry width="50" height="50" relative="1" as="geometry">
            <mxPoint x="290" y="314.85" as="sourcePoint" />
            <mxPoint x="210" y="314.85" as="targetPoint" />
          </mxGeometry>
        </mxCell>
        <mxCell id="lGPp_noDYYtTpUQ_1Vge-17" value="" style="endArrow=none;html=1;rounded=0;dashed=1;" parent="1" edge="1">
          <mxGeometry width="50" height="50" relative="1" as="geometry">
            <mxPoint x="295" y="320" as="sourcePoint" />
            <mxPoint x="294.85" y="370" as="targetPoint" />
          </mxGeometry>
        </mxCell>
        <mxCell id="9MnRX8hT36tKWASnIM4o-2" value="" style="curved=1;endArrow=openThin;html=1;rounded=0;endFill=0;" edge="1" parent="1">
          <mxGeometry width="50" height="50" relative="1" as="geometry">
            <mxPoint x="325" y="293" as="sourcePoint" />
            <mxPoint x="305" y="313" as="targetPoint" />
            <Array as="points">
              <mxPoint x="325" y="303" />
            </Array>
          </mxGeometry>
        </mxCell>
        <mxCell id="9MnRX8hT36tKWASnIM4o-3" value="Particle" style="text;html=1;align=center;verticalAlign=middle;whiteSpace=wrap;rounded=0;" vertex="1" parent="1">
          <mxGeometry x="300" y="270" width="70" height="30" as="geometry" />
        </mxCell>
        <mxCell id="9MnRX8hT36tKWASnIM4o-5" value="" style="endArrow=none;html=1;rounded=0;strokeWidth=3;" edge="1" parent="1">
          <mxGeometry width="50" height="50" relative="1" as="geometry">
            <mxPoint x="294.94" y="376" as="sourcePoint" />
            <mxPoint x="294.94" y="370" as="targetPoint" />
          </mxGeometry>
        </mxCell>
        <mxCell id="9MnRX8hT36tKWASnIM4o-6" value="" style="endArrow=none;html=1;rounded=0;strokeWidth=3;" edge="1" parent="1">
          <mxGeometry width="50" height="50" relative="1" as="geometry">
            <mxPoint x="205" y="314.94" as="sourcePoint" />
            <mxPoint x="210" y="314.94" as="targetPoint" />
          </mxGeometry>
        </mxCell>
        <mxCell id="9MnRX8hT36tKWASnIM4o-7" value="(0,0)" style="text;html=1;align=center;verticalAlign=middle;whiteSpace=wrap;rounded=0;" vertex="1" parent="1">
          <mxGeometry x="174" y="366" width="40" height="30" as="geometry" />
        </mxCell>
      </root>
    </mxGraphModel>
  </diagram>
</mxfile>
